#!OML:ASF H:\BabyWalks\Project 1\Capture day 1\Session 1\baby.ASF
:FULLY-SPECIFIED
:DEGREES
887
root 39.8003 17.5826 -9.655 562.649 81.3838 563.619
lowerback 19.1949 -1.5111 6.3158
upperback 6.17765 -0.133914 3.00763
thorax -4.08646 0.14562 -0.360177
lowerneck -0.770831 -2.32509 3.81462
upperneck -10.2651 -3.42346 -6.66809
head -3.41963 -1.53114 -2.80755
rclavicle -7.55382e-015 -1.03368e-014
rhumerus -43.5111 6.20039 -77.8004
rradius 51.5919
rwrist 1.23099
rhand -9.49495 -16.4058
rfingers 7.12502
rthumb 16.47 -45.7267
lclavicle -7.55382e-015 -1.03368e-014
lhumerus -42.7196 -6.28725 83.0108
lradius 57.111
lwrist 1.14577
lhand -2.10593 5.29966
lfingers 7.12502
lthumb 23.5718 33.875
rfemur -8.81861 10.7403 26.1017
rtibia 26.2935
rfoot -15.9654 -5.20977
rtoes 8.50893
lfemur -20.279 0.118308 -6.96523
ltibia 54.6159
lfoot -18.2464 -19.431
ltoes -13.1478
888
root 39.8404 17.5898 -9.66835 562.149 81.6439 563.064
lowerback 19.1815 -1.44509 6.21269
upperback 6.17152 -0.0743376 2.96855
thorax -4.08338 0.172951 -0.357295
lowerneck -0.786958 -2.28022 3.85655
upperneck -10.2502 -3.36951 -6.76875
head -3.41233 -1.50268 -2.85198
rclavicle -7.95139e-015 1.59028e-015
rhumerus -43.4143 5.84908 -77.5018
rradius 51.3775
rwrist 1.27405
rhand -9.68969 -16.5002
rfingers 7.12502
rthumb 16.2825 -45.8366
lclavicle -7.95139e-015 1.59028e-015
lhumerus -42.9167 -6.23711 83.0551
lradius 56.6987
lwrist 1.06621
lhand -1.97106 5.30476
lfingers 7.12502
lthumb 23.7011 33.8634
rfemur -8.66898 10.807 25.9026
rtibia 26.2051
rfoot -16.0707 -5.10307
rtoes 8.47926
lfemur -20.8822 0.202706 -7.42271
ltibia 53.4713
lfoot -18.5296 -18.5904
ltoes -12.5145
889
root 39.8815 17.596 -9.68277 561.736 81.8855 562.596
lowerback 19.1726 -1.38905 6.12599
upperback 6.1587 -0.0234346 2.93693
thorax -4.09028 0.195722 -0.353606
lowerneck -0.803872 -2.22901 3.89414
upperneck -10.2287 -3.30684 -6.86845
head -3.40175 -1.46995 -2.89548
rclavicle -1.07344e-014 1.98785e-014
rhumerus -43.32 5.48674 -77.2049
rradius 51.17
rwrist 1.30141
rhand -9.89437 -16.6137
rfingers 7.12502
rthumb 16.0854 -45.9661
lclavicle -1.07344e-014 1.98785e-014
lhumerus -43.1146 -6.1819 83.0948
lradius 56.2548
lwrist 0.967074
lhand -1.84756 5.30485
lfingers 7.12502
lthumb 23.8196 33.8481
rfemur -8.52247 10.8711 25.7236
rtibia 26.1204
rfoot -16.1804 -5.00116
rtoes 8.45176
lfemur -21.4387 0.19246 -7.85021
ltibia 52.167
lfoot -18.7626 -17.7812
ltoes -11.9171
890
root 39.9234 17.6016 -9.69824 561.438 82.1096 562.243
lowerback 19.1707 -1.34315 6.05727
upperback 6.14347 0.0191246 2.91197
thorax -4.10382 0.214397 -0.350994
lowerneck -0.843616 -2.16832 3.93643
upperneck -10.192 -3.23138 -6.97315
head -3.38095 -1.43148 -2.94187
rclavicle 1.19271e-015 2.8625e-014
rhumerus -43.2214 5.11984 -76.9162
rradius 50.9726
rwrist 1.30891
rhand -10.1159 -16.7456
rfingers 7.12502
rthumb 15.872 -46.1151
lclavicle 1.19271e-015 2.8625e-014
lhumerus -43.308 -6.12497 83.1283
lradius 55.7915
lwrist 0.858921
lhand -1.72831 5.31683
lfingers 7.12502
lthumb 23.934 33.8452
rfemur -8.37269 10.932 25.5677
rtibia 26.0291
rfoot -16.2878 -4.90275
rtoes 8.42398
lfemur -21.9476 0.086495 -8.23772
ltibia 50.7206
lfoot -18.9499 -17.0089
ltoes -11.3822
891
root 39.9666 17.6066 -9.71477 561.291 82.3193 562.042
lowerback 19.17 -1.30767 6.00801
upperback 6.12363 0.0526457 2.89503
thorax -4.12331 0.228505 -0.348732
lowerneck -0.881058 -2.09759 3.98207
upperneck -10.1512 -3.14289 -7.08765
head -3.35851 -1.38642 -2.99263
rclavicle 5.1684e-015 -3.4191e-014
rhumerus -43.1311 4.76718 -76.6392
rradius 50.7948
rwrist 1.29606
rhand -10.3465 -16.8885
rfingers 7.12502
rthumb 15.65 -46.2756
lclavicle 5.1684e-015 -3.4191e-014
lhumerus -43.5091 -6.06088 83.1579
lradius 55.3189
lwrist 0.741637
lhand -1.60375 5.35462
lfingers 7.12502
lthumb 24.0534 33.8672
rfemur -8.21149 10.9908 25.4376
rtibia 25.9212
rfoot -16.3901 -4.8052
rtoes 8.40235
lfemur -22.4061 -0.114089 -8.57565
ltibia 49.1483
lfoot -19.0976 -16.2836
ltoes -10.9707
892
root 40.0109 17.6113 -9.7322 561.409 82.5168 562.109
lowerback 19.1766 -1.28054 5.98837
upperback 6.09976 0.0824639 2.88676
thorax -4.151 0.240715 -0.352994
lowerneck -0.925029 -2.01858 4.0344
upperneck -10.1066 -3.04342 -7.20753
head -3.33299 -1.33617 -3.04681
rclavicle 1.74931e-014 4.45278e-014
rhumerus -43.0494 4.43243 -76.3798
rradius 50.6358
rwrist 1.26402
rhand -10.5818 -17.0323
rfingers 7.12502
rthumb 15.4233 -46.4369
lclavicle 1.74931e-014 4.45278e-014
lhumerus -43.7122 -5.9987 83.1816
lradius 54.8279
lwrist 0.609455
lhand -1.49673 5.38318
lfingers 7.12502
lthumb 24.156 33.8822
rfemur -8.03524 11.0595 25.348
rtibia 25.7875
rfoot -16.4798 -4.71369
rtoes 8.38419
lfemur -22.8174 -0.404074 -8.84203
ltibia 47.4697
lfoot -19.1955 -15.6115
ltoes -10.6273
893
root 40.0564 17.6158 -9.75066 561.769 82.7087 562.422
lowerback 19.186 -1.26136 5.99081
upperback 6.0712 0.106963 2.88541
thorax -4.18534 0.250126 -0.361097
lowerneck -0.956289 -1.92967 4.09539
upperneck -10.0641 -2.93116 -7.3382
head -3.31009 -1.27939 -3.10679
rclavicle 1.59028e-014 -2.3059e-014
rhumerus -42.982 4.13788 -76.1447
rradius 50.4968
rwrist 1.20428
rhand -10.8224 -17.1728
rfingers 7.12502
rthumb 15.1916 -46.5951
lclavicle 1.59028e-014 -2.3059e-014
lhumerus -43.9253 -5.93204 83.1991
lradius 54.331
lwrist 0.479479
lhand -1.38824 5.42173
lfingers 7.12502
lthumb 24.26 33.9069
rfemur -7.83998 11.1374 25.2905
rtibia 25.6228
rfoot -16.5533 -4.62377
rtoes 8.37741
lfemur -23.1796 -0.781768 -9.04022
ltibia 45.7017
lfoot -19.2304 -14.9823
ltoes -10.3362
894
root 40.1031 17.6201 -9.77014 562.458 82.9007 563.065
lowerback 19.1932 -1.248 6.01603
upperback 6.03801 0.128518 2.89086
thorax -4.22353 0.257893 -0.374111
lowerneck -0.975557 -1.82949 4.17851
upperneck -10.026 -2.80483 -7.48844
head -3.29084 -1.2156 -3.17834
rclavicle -1.35174e-014 -5.80451e-014
rhumerus -42.9321 3.88652 -75.937
rradius 50.3858
rwrist 1.12227
rhand -11.058 -17.306
rfingers 7.12502
rthumb 14.9646 -46.7453
lclavicle -1.35174e-014 -5.80451e-014
lhumerus -44.1516 -5.85798 83.2057
lradius 53.8325
lwrist 0.34819
lhand -1.27853 5.46182
lfingers 7.12502
lthumb 24.3652 33.9329
rfemur -7.62899 11.2302 25.2704
rtibia 25.426
rfoot -16.6083 -4.5328
rtoes 8.36132
lfemur -23.498 -1.23176 -9.16073
ltibia 43.8682
lfoot -19.2013 -14.3844
ltoes -10.0964
895
root 40.1509 17.6242 -9.79076 563.424 83.0962 563.983
lowerback 19.1958 -1.239 6.05759
upperback 6.00467 0.147185 2.8983
thorax -4.25944 0.264295 -0.39357
lowerneck -0.991552 -1.72246 4.28072
upperneck -9.99699 -2.66991 -7.64913
head -3.27519 -1.14772 -3.25769
rclavicle -2.78299e-015 -5.40694e-014
rhumerus -42.8915 3.6802 -75.7598
rradius 50.3025
rwrist 1.01725
rhand -11.2847 -17.4287
rfingers 7.12502
rthumb 14.7462 -46.8842
lclavicle -2.78299e-015 -5.40694e-014
lhumerus -44.3768 -5.7812 83.2008
lradius 53.3277
lwrist 0.21754
lhand -1.17742 5.49473
lfingers 7.12502
lthumb 24.4621 33.9527
rfemur -7.40634 11.3358 25.2744
rtibia 25.201
rfoot -16.6467 -4.43881
rtoes 8.34508
lfemur -23.7797 -1.75092 -9.21243
ltibia 41.9906
lfoot -19.0858 -13.8138
ltoes -9.814
896
root 40.1997 17.6278 -9.81249 564.747 83.3032 565.257
lowerback 19.1975 -1.23139 6.11188
upperback 5.96467 0.166572 2.91013
thorax -4.30194 0.270572 -0.415649
lowerneck -0.97545 -1.60899 4.38288
upperneck -9.9847 -2.52637 -7.80858
head -3.2703 -1.07487 -3.33728
rclavicle 1.55052e-014 1.90833e-014
rhumerus -42.8747 3.53037 -75.6113
rradius 50.254
rwrist 0.893193
rhand -11.4898 -17.5394
rfingers 7.12502
rthumb 14.5486 -47.0092
lclavicle 1.55052e-014 1.90833e-014
lhumerus -44.6194 -5.69191 83.1835
lradius 52.8347
lwrist 0.108799
lhand -1.05827 5.54325
lfingers 7.12502
lthumb 24.5764 33.9858
rfemur -7.17532 11.4638 25.3056
rtibia 24.9538
rfoot -16.669 -4.34202
rtoes 8.31485
lfemur -24.0245 -2.31801 -9.19238
ltibia 40.0973
lfoot -18.8896 -13.2506
ltoes -9.47813
897
root 40.2497 17.631 -9.83543 566.446 83.5236 566.905
lowerback 19.1875 -1.22169 6.17636
upperback 5.9309 0.189557 2.92341
thorax -4.33138 0.279074 -0.442791
lowerneck -0.969294 -1.49055 4.50391
upperneck -9.97744 -2.37671 -7.97749
head -3.26508 -0.999403 -3.4243
rclavicle -6.36111e-015 7.15625e-015
rhumerus -42.8614 3.42574 -75.4891
rradius 50.2422
rwrist 0.762649
rhand -11.6539 -17.639
rfingers 7.12502
rthumb 14.3905 -47.1201
lclavicle -6.36111e-015 7.15625e-015
lhumerus -44.8521 -5.59499 83.1518
lradius 52.3436
lwrist 0.00769991
lhand -0.929709 5.57759
lfingers 7.12502
lthumb 24.6996 34.0033
rfemur -6.93949 11.6096 25.3585
rtibia 24.693
rfoot -16.6793 -4.23531
rtoes 8.25428
lfemur -24.2352 -2.91433 -9.10855
ltibia 38.2159
lfoot -18.6263 -12.6835
ltoes -9.13791
898
root 40.3008 17.6334 -9.85963 568.561 83.7605 568.97
lowerback 19.1721 -1.20818 6.24958
upperback 5.90103 0.218325 2.93478
thorax -4.3533 0.29063 -0.478214
lowerneck -0.957672 -1.36798 4.62343
upperneck -9.98531 -2.22077 -8.13184
head -3.26476 -0.920893 -3.50651
rclavicle -3.02153e-014 -2.22639e-014
rhumerus -42.8577 3.36416 -75.3948
rradius 50.2697
rwrist 0.626581
rhand -11.7798 -17.7236
rfingers 7.12502
rthumb 14.2692 -47.2134
lclavicle -3.02153e-014 -2.22639e-014
lhumerus -45.0818 -5.4919 83.1028
lradius 51.8638
lwrist -0.0803682
lhand -0.778098 5.61294
lfingers 7.12502
lthumb 24.8449 34.0187
rfemur -6.70099 11.7742 25.4288
rtibia 24.4278
rfoot -16.6822 -4.1165
rtoes 8.16164
lfemur -24.4119 -3.52 -8.96922
ltibia 36.3781
lfoot -18.2981 -12.1048
ltoes -8.81792
